HIERARCHY
ROOT Hips
{
	OFFSET -0.001795 -0.223333 0.028219
	CHANNELS 6 Xposition Yposition Zposition Zrotation Yrotation Xrotation 
	JOINT LeftUpLeg
	{
		OFFSET 0.069520 -0.091406 -0.006815
		CHANNELS 3 Zrotation Yrotation Xrotation
		JOINT LeftLeg
		{
			OFFSET 0.034277 -0.375199 -0.004496
			CHANNELS 3 Zrotation Yrotation Xrotation
			JOINT LeftFoot
			{
				OFFSET -0.013596 -0.397961 -0.043693
				CHANNELS 3 Zrotation Yrotation Xrotation
				JOINT LeftToe
				{
					OFFSET 0.026358 -0.055791 0.119288
					CHANNELS 3 Zrotation Yrotation Xrotation
					End Site
					{
						OFFSET 0.000000 0.000000 0.000000
					}
				}
			}
		}
	}
	JOINT RightUpLeg
	{
		OFFSET -0.067670 -0.090522 -0.004320
		CHANNELS 3 Zrotation Yrotation Xrotation
		JOINT RightLeg
		{
			OFFSET -0.038290 -0.382569 -0.008850
			CHANNELS 3 Zrotation Yrotation Xrotation
			JOINT RightFoot
			{
				OFFSET 0.015774 -0.398415 -0.042312
				CHANNELS 3 Zrotation Yrotation Xrotation
				JOINT RightToe
				{
					OFFSET -0.025372 -0.048144 0.123348
					CHANNELS 3 Zrotation Yrotation Xrotation
					End Site
					{
						OFFSET 0.000000 0.000000 0.000000
					}
				}
			}
		}
	}
	JOINT Spine
	{
		OFFSET -0.002533 0.108963 -0.026696
		CHANNELS 3 Zrotation Yrotation Xrotation
		JOINT Spine1
		{
			OFFSET 0.005487 0.135180 0.001092
			CHANNELS 3 Zrotation Yrotation Xrotation
			JOINT Spine2
			{
				OFFSET 0.001457 0.052922 0.025425
				CHANNELS 3 Zrotation Yrotation Xrotation
				JOINT Neck
				{
					OFFSET -0.002778 0.213870 -0.042857
					CHANNELS 3 Zrotation Yrotation Xrotation
					JOINT Head
					{
						OFFSET 0.005152 0.064970 0.051349
						CHANNELS 3 Zrotation Yrotation Xrotation
						End Site
						{
							OFFSET 0.000000 0.000000 0.000000
						}
					}
				}
				JOINT LeftShoulder
				{
					OFFSET 0.078845 0.121749 -0.034090
					CHANNELS 3 Zrotation Yrotation Xrotation
					JOINT LeftArm
					{
						OFFSET 0.090977 0.030469 -0.008868
						CHANNELS 3 Zrotation Yrotation Xrotation
						JOINT LeftForeArm
						{
							OFFSET 0.259612 -0.012772 -0.027456
							CHANNELS 3 Zrotation Yrotation Xrotation
							JOINT LeftHand
							{
								OFFSET 0.249234 0.008986 -0.001171
								CHANNELS 3 Zrotation Yrotation Xrotation
								End Site
								{
									OFFSET 0.000000 0.000000 0.000000
								}
							}
						}
					}
				}
				JOINT RightShoulder
				{
					OFFSET -0.081759 0.118833 -0.038615
					CHANNELS 3 Zrotation Yrotation Xrotation
					JOINT RightArm
					{
						OFFSET -0.096012 0.032551 -0.009143
						CHANNELS 3 Zrotation Yrotation Xrotation
						JOINT RightForeArm
						{
							OFFSET -0.253742 -0.013329 -0.021401
							CHANNELS 3 Zrotation Yrotation Xrotation
							JOINT RightHand
							{
								OFFSET -0.255298 0.007772 -0.005559
								CHANNELS 3 Zrotation Yrotation Xrotation
								End Site
								{
									OFFSET 0.000000 0.000000 0.000000
								}
							}
						}
					}
				}
			}
		}
	}
}
MOTION
Frames: 13
Frame Time: 0.050000
0.000000 0.941806 0.000000 -1.358875 -1.459040 15.903008 4.929577 -1.224024 -23.263561 -1.599212 -0.002086 10.714854 3.573334 16.158348 58.676048 0.000000 0.000000 0.000000 -4.089847 1.855452 -23.849686 0.914988 0.372611 13.625485 6.677957 -0.637020 29.951842 0.000000 0.000000 0.000000 3.785320 -1.636075 19.145387 -1.800668 0.824370 -2.433269 -1.050809 3.639447 4.869002 4.662830 -0.433921 -23.592059 0.000000 0.000000 0.000000 -18.878606 -26.584273 12.415377 -50.177815 -45.642870 14.332423 11.116366 -12.564386 -0.670486 0.000000 0.000000 0.000000 17.688481 22.161207 11.575826 52.376005 42.161978 14.179380 -13.303288 10.113567 -0.466578 0.000000 0.000000 0.000000 
-0.000316 0.941516 -0.000700 -1.610545 -0.793233 16.454930 5.274055 -1.239027 -24.066459 -1.435439 -0.055262 11.138580 2.616849 15.398898 56.875360 0.000000 0.000000 0.000000 -4.143309 1.856138 -24.365909 1.883597 0.119520 12.738795 5.525039 -3.085693 32.844369 0.000000 0.000000 0.000000 4.105745 -1.773315 19.472045 -0.899313 0.458490 -3.563663 -1.299452 4.216624 6.015880 4.420723 0.021369 -25.785804 0.000000 0.000000 0.000000 -18.793835 -26.055824 11.857365 -50.238975 -47.127542 15.001854 11.249287 -9.885993 -0.523999 0.000000 0.000000 0.000000 15.543015 21.420525 11.045054 54.470530 44.199280 16.094665 -14.215208 10.274265 -0.513056 0.000000 0.000000 0.000000 
-0.000757 0.942131 -0.001383 -1.913889 -0.609783 16.175207 5.582330 -1.192168 -24.001234 -1.257944 -0.105810 11.716383 1.760929 14.651505 55.574374 0.000000 0.000000 0.000000 -3.725120 1.929033 -24.625829 1.626366 0.193977 13.619670 6.193222 -2.442885 33.682582 0.000000 0.000000 0.000000 4.877856 -1.987260 19.753499 -2.271659 1.020774 -3.531466 -0.869011 4.100439 5.578096 4.523712 -0.350246 -22.994174 0.000000 0.000000 0.000000 -19.880255 -25.322812 11.608297 -47.553635 -48.425220 14.632343 9.127242 -6.638835 -0.217814 0.000000 0.000000 0.000000 16.796174 21.196833 11.112054 52.648321 44.073513 15.277768 -13.667937 9.543364 -0.426999 0.000000 0.000000 0.000000 
-0.001324 0.942707 -0.001851 -1.745096 0.636671 16.941365 5.416066 -1.338072 -24.888311 -0.851791 -0.219177 11.774453 0.483595 13.580261 53.278512 0.000000 0.000000 0.000000 -3.614148 1.953809 -25.704032 1.237239 0.247889 13.662894 5.828024 -3.564212 36.573528 0.000000 0.000000 0.000000 5.307734 -2.093659 19.100066 -2.283034 1.027807 -3.403700 -0.624102 3.294422 5.886506 3.730834 0.274838 -25.467273 0.000000 0.000000 0.000000 -19.160870 -25.468163 11.712265 -47.834945 -50.292172 15.623368 9.416189 -4.683127 -0.141651 0.000000 0.000000 0.000000 13.671263 20.545420 10.108545 54.652291 45.742304 17.148195 -13.512788 9.818750 -0.446785 0.000000 0.000000 0.000000 
-0.001898 0.943852 -0.002066 -1.584595 1.070502 16.893376 5.321596 -1.374501 -24.702628 -0.732758 -0.246392 11.505665 -0.464116 12.821920 52.678975 0.000000 0.000000 0.000000 -3.616567 1.908624 -25.450543 1.113430 0.263259 13.676481 5.634822 -3.433253 35.685012 0.000000 0.000000 0.000000 4.992740 -2.065803 19.442149 -1.678905 0.778859 -3.127775 -0.803828 2.934057 5.789577 3.481934 0.467403 -26.297363 0.000000 0.000000 0.000000 -19.171823 -25.281014 11.630974 -46.716465 -50.939704 15.465255 9.761373 -2.121274 -0.029870 0.000000 0.000000 0.000000 13.154038 20.722981 10.077705 54.709258 46.430907 17.609405 -14.633579 9.402759 -0.469166 0.000000 0.000000 0.000000 
-0.002345 0.944442 -0.002097 -1.415827 1.726272 17.116563 5.096190 -1.458347 -24.778755 -0.791738 -0.239841 11.231832 0.447707 13.450506 51.273603 0.000000 0.000000 0.000000 -3.655240 1.859437 -25.386133 0.965032 0.272300 13.424094 5.501119 -3.350662 35.347027 0.000000 0.000000 0.000000 5.110674 -2.121324 19.430721 -1.554623 0.732773 -3.421604 -0.644724 2.805330 6.063034 3.494702 0.478109 -26.327965 0.000000 0.000000 0.000000 -18.335369 -25.888216 11.833261 -45.216114 -51.212754 14.893313 10.040189 -0.827322 0.031781 0.000000 0.000000 0.000000 12.047963 20.473792 9.793248 55.443049 46.670832 18.115555 -15.154263 9.780171 -0.527019 0.000000 0.000000 0.000000 
-0.002468 0.944646 -0.002080 -1.367253 2.112901 16.952001 4.952292 -1.505533 -24.806422 -0.717366 -0.260301 11.167946 1.304550 14.352560 52.658740 0.000000 0.000000 0.000000 -3.644005 1.834550 -25.343826 0.770735 0.307887 13.492491 5.928679 -3.131255 36.640889 0.000000 0.000000 0.000000 5.175898 -2.151295 19.457297 -1.396590 0.667082 -3.231807 -0.687629 2.395844 6.215902 3.735699 0.394889 -26.915335 0.000000 0.000000 0.000000 -17.612745 -25.484848 11.558082 -44.651754 -51.744693 14.856577 10.531603 0.748483 0.120844 0.000000 0.000000 0.000000 11.934760 20.201976 9.587941 55.978032 46.756475 18.378547 -16.141534 9.846827 -0.581040 0.000000 0.000000 0.000000 
-0.002395 0.944578 -0.002245 -1.218343 2.504615 16.734650 4.599901 -1.591713 -24.907452 -0.719042 -0.277285 11.443460 2.989589 15.772607 53.311065 0.000000 0.000000 0.000000 -3.652537 1.801761 -25.258908 0.578472 0.343035 13.576774 5.766548 -3.601983 37.803121 0.000000 0.000000 0.000000 5.377717 -2.236011 19.703095 -1.198000 0.583745 -3.083312 -0.846928 2.117090 5.963595 3.661484 0.426788 -26.895854 0.000000 0.000000 0.000000 -17.014051 -25.777713 11.640041 -43.481001 -51.706525 14.332125 11.149036 1.023477 0.146250 0.000000 0.000000 0.000000 11.840583 20.054252 9.479424 56.493282 46.770425 18.641751 -16.760717 10.060444 -0.636199 0.000000 0.000000 0.000000 
-0.002337 0.944243 -0.002664 -1.237387 2.543315 16.372893 4.505794 -1.596551 -24.731849 -0.771823 -0.278179 11.763384 3.942642 16.487821 53.199492 0.000000 0.000000 0.000000 -3.646724 1.801503 -25.338296 0.535528 0.361983 13.974871 6.062154 -3.762448 39.541934 0.000000 0.000000 0.000000 5.398801 -2.273194 20.074058 -1.066991 0.529268 -3.016673 -0.641794 2.258882 5.877313 3.445111 0.533512 -26.814693 0.000000 0.000000 0.000000 -16.158249 -26.034499 11.608446 -42.401535 -52.328889 14.114214 11.239245 2.016448 0.206997 0.000000 0.000000 0.000000 11.542061 20.149555 9.493859 56.570352 47.189084 18.954530 -16.998358 9.257499 -0.557054 0.000000 0.000000 0.000000 
-0.002428 0.943824 -0.003275 -1.176716 2.772128 16.012929 4.413133 -1.631744 -24.866483 -0.896949 -0.283327 12.540555 4.635263 17.038596 53.141303 0.000000 0.000000 0.000000 -3.623835 1.793650 -25.437729 0.347819 0.413864 14.523253 6.324219 -3.845626 40.997063 0.000000 0.000000 0.000000 5.525819 -2.343636 20.431431 -0.915209 0.464471 -2.868354 -0.654063 2.057065 5.915568 3.211755 0.677644 -27.325215 0.000000 0.000000 0.000000 -15.336793 -26.335101 11.668325 -41.352309 -53.164095 13.982544 11.127970 2.637523 0.242136 0.000000 0.000000 0.000000 11.243682 20.181385 9.434316 56.676736 47.825414 19.382033 -17.174148 8.640591 -0.495100 0.000000 0.000000 0.000000 
-0.002713 0.943348 -0.004035 -1.167934 2.798672 15.770915 4.238716 -1.651268 -24.718502 -0.826054 -0.313481 12.958184 5.190736 17.364269 51.501529 0.000000 0.000000 0.000000 -3.593804 1.795761 -25.457086 0.356115 0.424377 15.015645 6.224940 -3.853091 40.640518 0.000000 0.000000 0.000000 5.480502 -2.342506 20.574942 -0.720644 0.379188 -2.687454 -0.778828 2.213504 5.898226 3.424645 0.617454 -27.477792 0.000000 0.000000 0.000000 -14.604271 -27.078003 11.891697 -40.194331 -53.605715 13.624553 10.566079 2.600706 0.219719 0.000000 0.000000 0.000000 11.433972 20.490537 9.660288 56.077119 48.592235 19.570656 -16.858272 7.611630 -0.366344 0.000000 0.000000 0.000000 
-0.003067 0.943139 -0.004778 -1.304071 2.726383 15.416794 4.268290 -1.627355 -24.531663 -0.853398 -0.325616 13.548502 5.696425 17.652494 49.916443 0.000000 0.000000 0.000000 -3.436632 1.822606 -25.412230 0.246474 0.466019 15.462969 6.808770 -3.283532 40.914129 0.000000 0.000000 0.000000 5.504969 -2.371866 20.899795 -0.495843 0.286494 -2.732961 -1.076125 2.392071 5.961854 3.935061 0.403269 -27.447295 0.000000 0.000000 0.000000 -14.395615 -27.730726 12.144063 -39.434996 -53.664989 13.291820 10.469776 2.470620 0.207262 0.000000 0.000000 0.000000 11.603391 21.185028 10.080788 55.162655 49.421170 19.631953 -16.393376 6.452691 -0.227532 0.000000 0.000000 0.000000 
-0.003542 0.943314 -0.005480 -1.237978 2.674752 15.223882 4.175584 -1.624462 -24.300420 -1.102405 -0.277250 13.791558 6.397993 18.114856 48.150407 0.000000 0.000000 0.000000 -3.343626 1.845902 -25.525064 0.124265 0.510690 15.908434 6.478736 -3.737890 41.110606 0.000000 0.000000 0.000000 5.541652 -2.398778 21.138643 -0.527275 0.300450 -2.745015 -1.139950 2.469468 6.032076 4.219801 0.302131 -27.666897 0.000000 0.000000 0.000000 -14.044945 -28.548562 12.502211 -39.301387 -53.907533 13.315354 9.930775 1.846413 0.159317 0.000000 0.000000 0.000000 11.337443 21.586241 10.252344 54.478391 50.248328 19.793233 -15.645912 5.545919 -0.121779 0.000000 0.000000 0.000000 
